<?xml version="1.0" standalone="no"?>
<!DOCTYPE svg PUBLIC "-//W3C//DTD SVG 20010904//EN"
 "http://www.w3.org/TR/2001/REC-SVG-20010904/DTD/svg10.dtd">
<svg version="1.0" xmlns="http://www.w3.org/2000/svg"
 width="200.000000pt" height="200.000000pt" viewBox="0 0 200.000000 200.000000"
 preserveAspectRatio="xMidYMid meet">

<g transform="translate(0.000000,200.000000) scale(0.100000,-0.100000)"
fill="#000000" stroke="none">
<path d="M819 1635 c-182 -59 -331 -209 -389 -390 -7 -22 -22 -52 -34 -68 -14
-19 -21 -48 -24 -92 -5 -83 3 -128 32 -162 12 -15 30 -49 40 -74 14 -40 15
-54 5 -93 -23 -91 6 -179 83 -253 62 -59 131 -100 223 -130 74 -25 93 -27 245
-27 152 0 171 2 245 27 130 43 242 126 288 212 20 40 24 87 17 205 -3 47 14
95 51 141 37 47 38 210 1 247 -10 10 -23 38 -31 62 -53 182 -207 336 -393 395
-110 35 -251 35 -359 0z m153 -145 c3 -85 5 -95 22 -98 34 -7 46 25 46 121 0
77 2 88 16 83 9 -3 22 -6 30 -6 11 0 14 -15 14 -64 0 -67 13 -92 44 -80 12 5
16 20 16 65 0 70 3 71 89 28 121 -61 230 -197 266 -334 86 -332 -168 -665
-508 -665 -347 0 -607 325 -522 653 43 164 190 328 332 371 21 7 22 4 25 -50
3 -64 23 -89 52 -65 12 10 16 31 16 77 0 57 2 63 23 66 12 2 25 1 29 -2 4 -3
8 -48 10 -100z m-288 -929 c31 -18 87 -45 124 -59 59 -23 82 -26 192 -26 110
0 133 3 192 26 100 38 173 85 239 156 l59 63 0 -36 c0 -107 -125 -213 -310
-261 -79 -21 -259 -24 -345 -5 -180 39 -325 157 -325 265 l0 34 59 -61 c33
-34 85 -77 115 -96z"/>
<path d="M865 1293 c-124 -27 -265 -103 -298 -161 -28 -47 -33 -136 -12 -207
51 -177 229 -295 445 -295 214 0 393 117 444 290 28 95 17 184 -30 240 -31 36
-166 104 -249 125 -55 14 -249 19 -300 8z m280 -75 c73 -15 189 -73 219 -109
22 -26 26 -40 26 -98 0 -293 -446 -431 -684 -211 -65 60 -96 128 -96 211 0 80
19 109 97 151 132 70 282 90 438 56z"/>
<path d="M1130 1130 c-11 -21 -8 -24 80 -71 38 -21 46 -30 55 -69 9 -38 15
-45 35 -45 23 0 25 3 25 52 -1 62 -23 91 -97 129 -57 29 -84 30 -98 4z"/>
</g>
</svg>
